<svg width="24" height="24" viewBox="0 0 24 24" fill="none" xmlns="http://www.w3.org/2000/svg">
<path d="M21.9999 13.5C22.8284 13.5 23.4999 12.8284 23.4999 12C23.4999 11.1716 22.8284 10.5 21.9999 10.5L21.9999 13.5ZM0.939276 10.9393C0.35349 11.5251 0.35349 12.4749 0.939276 13.0607L10.4852 22.6066C11.071 23.1924 12.0208 23.1924 12.6065 22.6066C13.1923 22.0208 13.1923 21.0711 12.6065 20.4853L4.12126 12L12.6065 3.51472C13.1923 2.92893 13.1923 1.97918 12.6065 1.3934C12.0208 0.807611 11.071 0.807611 10.4852 1.3934L0.939276 10.9393ZM21.9999 10.5L1.99994 10.5L1.99994 13.5L21.9999 13.5L21.9999 10.5Z" fill="#888888"/>
</svg>
