<svg width="17" height="15" viewBox="0 0 17 15" fill="none" xmlns="http://www.w3.org/2000/svg">
<path d="M4.55089 11.0156C5.22506 10.5573 5.89389 10.2057 6.55736 9.96094C7.22083 9.71615 7.93246 9.59375 8.69224 9.59375C9.45202 9.59375 10.1663 9.71615 10.8351 9.96094C11.504 10.2057 12.1755 10.5573 12.8496 11.0156C13.3205 10.4531 13.6549 9.88542 13.8529 9.3125C14.0508 8.73958 14.1498 8.13542 14.1498 7.5C14.1498 5.98958 13.6281 4.72656 12.5848 3.71094C11.5414 2.69531 10.2439 2.1875 8.69224 2.1875C7.14057 2.1875 5.84306 2.69531 4.79969 3.71094C3.75633 4.72656 3.23465 5.98958 3.23465 7.5C3.23465 8.13542 3.33631 8.73958 3.53963 9.3125C3.74295 9.88542 4.08004 10.4531 4.55089 11.0156ZM8.69224 7.96875C8.07157 7.96875 7.54989 7.76302 7.12719 7.35156C6.7045 6.9401 6.49315 6.43229 6.49315 5.82812C6.49315 5.22396 6.7045 4.71615 7.12719 4.30469C7.54989 3.89323 8.07157 3.6875 8.69224 3.6875C9.31291 3.6875 9.83459 3.89323 10.2573 4.30469C10.68 4.71615 10.8913 5.22396 10.8913 5.82812C10.8913 6.43229 10.68 6.9401 10.2573 7.35156C9.83459 7.76302 9.31291 7.96875 8.69224 7.96875ZM8.69224 13.75C7.81474 13.75 6.9854 13.5859 6.20422 13.2578C5.42304 12.9297 4.74084 12.4818 4.15762 11.9141C3.57441 11.3464 3.11426 10.6823 2.77717 9.92188C2.44009 9.16146 2.27155 8.35417 2.27155 7.5C2.27155 6.63542 2.44009 5.82552 2.77717 5.07031C3.11426 4.3151 3.57441 3.65365 4.15762 3.08594C4.74084 2.51823 5.42304 2.07031 6.20422 1.74219C6.9854 1.41406 7.81474 1.25 8.69224 1.25C9.58043 1.25 10.4124 1.41406 11.1883 1.74219C11.9641 2.07031 12.6436 2.51823 13.2269 3.08594C13.8101 3.65365 14.2702 4.3151 14.6073 5.07031C14.9444 5.82552 15.1129 6.63542 15.1129 7.5C15.1129 8.35417 14.9444 9.16146 14.6073 9.92188C14.2702 10.6823 13.8101 11.3464 13.2269 11.9141C12.6436 12.4818 11.9641 12.9297 11.1883 13.2578C10.4124 13.5859 9.58043 13.75 8.69224 13.75ZM8.69224 12.8125C9.2808 12.8125 9.85599 12.7292 10.4178 12.5625C10.9796 12.3958 11.5334 12.1042 12.0792 11.6875C11.5334 11.3125 10.9769 11.026 10.4098 10.8281C9.84261 10.6302 9.2701 10.5312 8.69224 10.5312C8.11438 10.5312 7.54186 10.6302 6.9747 10.8281C6.40754 11.026 5.85108 11.3125 5.30532 11.6875C5.85108 12.1042 6.40487 12.3958 6.96668 12.5625C7.52849 12.7292 8.10368 12.8125 8.69224 12.8125ZM8.69224 7.03125C9.05608 7.03125 9.35303 6.91927 9.58311 6.69531C9.81318 6.47135 9.92822 6.18229 9.92822 5.82812C9.92822 5.47396 9.81318 5.1849 9.58311 4.96094C9.35303 4.73698 9.05608 4.625 8.69224 4.625C8.3284 4.625 8.03144 4.73698 7.80137 4.96094C7.57129 5.1849 7.45626 5.47396 7.45626 5.82812C7.45626 6.18229 7.57129 6.47135 7.80137 6.69531C8.03144 6.91927 8.3284 7.03125 8.69224 7.03125Z" fill="black"/>
</svg>
