<svg width="16" height="15" viewBox="0 0 16 15" fill="none" xmlns="http://www.w3.org/2000/svg">
<path d="M4.56596 10.6406H8.89799V9.70312H4.56596V10.6406ZM4.56596 7.96875H10.9616V7.03125H4.56596V7.96875ZM4.56596 5.29688H10.9616V4.35938H4.56596V5.29688ZM3.03794 13.125C2.7859 13.125 2.56536 13.0312 2.37632 12.8438C2.18729 12.6562 2.09277 12.4375 2.09277 12.1875V2.8125C2.09277 2.5625 2.18729 2.34375 2.37632 2.15625C2.56536 1.96875 2.7859 1.875 3.03794 1.875H12.4896C12.7417 1.875 12.9622 1.96875 13.1512 2.15625C13.3403 2.34375 13.4348 2.5625 13.4348 2.8125V12.1875C13.4348 12.4375 13.3403 12.6562 13.1512 12.8438C12.9622 13.0312 12.7417 13.125 12.4896 13.125H3.03794ZM3.03794 12.1875H12.4896V2.8125H3.03794V12.1875ZM3.03794 2.8125V12.1875V2.8125Z" fill="black"/>
</svg>
