<svg width="15" height="15" viewBox="0 0 15 15" fill="none" xmlns="http://www.w3.org/2000/svg">
<path d="M2.1875 13.125C1.9375 13.125 1.71875 13.0312 1.53125 12.8438C1.34375 12.6562 1.25 12.4375 1.25 12.1875V4.54688C1.25 4.29688 1.34375 4.07812 1.53125 3.89062C1.71875 3.70312 1.9375 3.60938 2.1875 3.60938H5.15625V2.1875C5.15625 1.9375 5.25 1.71875 5.4375 1.53125C5.625 1.34375 5.84375 1.25 6.09375 1.25H8.90625C9.15625 1.25 9.375 1.34375 9.5625 1.53125C9.75 1.71875 9.84375 1.9375 9.84375 2.1875V3.60938H12.8125C13.0625 3.60938 13.2812 3.70312 13.4688 3.89062C13.6562 4.07812 13.75 4.29688 13.75 4.54688V12.1875C13.75 12.4375 13.6562 12.6562 13.4688 12.8438C13.2812 13.0312 13.0625 13.125 12.8125 13.125H2.1875ZM6.09375 3.60938H8.90625V2.1875H6.09375V3.60938ZM12.8125 9.20312H8.92188V10.1406H6.10938V9.20312H2.1875V12.1875H12.8125V9.20312ZM7.04688 9.20312H7.98438V8.26562H7.04688V9.20312ZM2.1875 8.26562H6.10938V7.32812H8.92188V8.26562H12.8125V4.54688H2.1875V8.26562Z" fill="black"/>
</svg>
