<svg width="34" height="32" viewBox="0 0 34 32" fill="none" xmlns="http://www.w3.org/2000/svg">
<path d="M8.22302 2.77106L6.4964 3.74228L8.68345 7.48435L5.3741 13.3403H1V15.3398H11.446L13.518 11.6549L8.22302 2.77106Z" fill="#0C2B9C"/>
<path d="M11.446 1L9.74819 1.97122L14.9856 10.7979H19.1007L24.223 1.97122L22.4964 1L20.3093 4.65637H13.518L11.446 1Z" fill="#0C2B9C"/>
<path d="M27.3597 3.74228L25.6618 2.77106L20.5108 11.6549L22.6978 15.3398H33V13.3403H28.7698L25.2302 7.48435L26.2949 5.61331L27.3597 3.74228Z" fill="#0C2B9C"/>
<path d="M1 18.8819V16.9966H11.446L13.518 20.5102L8.22302 29.6797L6.4964 28.7084L8.68345 24.6807L5.3741 18.8819H1Z" fill="#0C2B9C"/>
<path d="M14.9856 21.2814L9.74819 30.2795L11.446 31.2222L13.7482 27.423H20.5108L22.6978 31.2222L24.4244 30.2795L19.1007 21.2814H14.9856Z" fill="#0C2B9C"/>
<path d="M27.3597 28.3657L25.6618 29.3654L20.5108 20.5102L22.6978 16.9966H28.7698H33V18.8819H28.7698L25.2302 24.6807L27.3597 28.3657Z" fill="#0C2B9C"/>
<path d="M8.22302 2.77106L6.4964 3.74228L8.68345 7.48435L5.3741 13.3403H1V15.3398H11.446L13.518 11.6549L8.22302 2.77106Z" stroke="black" stroke-linecap="round"/>
<path d="M11.446 1L9.74819 1.97122L14.9856 10.7979H19.1007L24.223 1.97122L22.4964 1L20.3093 4.65637H13.518L11.446 1Z" stroke="black" stroke-linecap="round"/>
<path d="M27.3597 3.74228L25.6618 2.77106L20.5108 11.6549L22.6978 15.3398H33V13.3403H28.7698L25.2302 7.48435L26.2949 5.61331L27.3597 3.74228Z" stroke="black" stroke-linecap="round"/>
<path d="M1 18.8819V16.9966H11.446L13.518 20.5102L8.22302 29.6797L6.4964 28.7084L8.68345 24.6807L5.3741 18.8819H1Z" stroke="black" stroke-linecap="round"/>
<path d="M14.9856 21.2814L9.74819 30.2795L11.446 31.2222L13.7482 27.423H20.5108L22.6978 31.2222L24.4244 30.2795L19.1007 21.2814H14.9856Z" stroke="black" stroke-linecap="round"/>
<path d="M27.3597 28.3657L25.6618 29.3654L20.5108 20.5102L22.6978 16.9966H28.7698H33V18.8819H28.7698L25.2302 24.6807L27.3597 28.3657Z" stroke="black" stroke-linecap="round"/>
<path d="M15.6667 17.4445L14.7778 16.5556H12.1111L11.2222 16.1111L9.44445 15.6667L8.55556 14.3333L8.11111 13L9.44445 12.1111L8.55556 10.7778L9.88889 9.44446V7.66668L11.6667 6.33335L13 6.77779L13.4444 5.72743L14.7778 5.44446L15.6667 4.55557H17.8889L19.4237 5.72743L20.5556 5.44446L21 6.33335L22.7778 6.77779L24.1111 7.66668V9.44446L25.4444 10.3333V11.6667V13.8889L24.1111 15.6667L21.8889 16.1111L21.4444 16.5556H19.2222L18.3333 17.4445H15.6667Z" fill="#3FCA0E"/>
<path d="M21.8889 16.1111L21.4444 16.5556H19.2222L18.3333 17.4445H15.6667L14.7778 16.5556H12.1111L11.2222 16.1111M21.8889 16.1111L21.4444 15.6667L19.2222 15.2222L17.8889 14.7778M21.8889 16.1111L24.1111 15.6667L25.4444 13.8889V11.6667M11.2222 16.1111L13 15.2222M11.2222 16.1111L9.44445 15.6667L8.55556 14.3333L8.11111 13L9.44445 12.1111L8.55556 10.7778L9.88889 9.44446V7.66668L11.6667 6.33335L13 6.77779L13.4444 5.72743L14.7778 5.44446M13 15.2222V13.8889M13 15.2222L14.7778 15.6667L16.1111 14.7778M16.1111 14.7778L14.7778 13.4445M16.1111 14.7778H17.8889M17.8889 14.7778L19.2222 13.4445M25.4444 11.6667L23.6667 12.1111M25.4444 11.6667V10.3333L24.1111 9.44446V7.66668L22.7778 6.77779L21 6.33335L20.5556 5.44446L19.4237 5.72743M18.7778 5.8889L19.4237 5.72743M19.4237 5.72743L17.8889 4.55557H15.6667L14.7778 5.44446M14.7778 5.44446L15.6667 6.33335" stroke="black" stroke-linecap="round"/>
<path d="M15.9333 19.3407L15.2222 21H18.7778L18.0666 19.3407V15.1926L17.7111 14.7778H17H16.2889L15.9333 15.1926V18.0963V19.3407Z" fill="#B39287"/>
<path d="M17 16.437V14.7778M17 17.6815V18.5111M15.2222 21L15.9333 19.3407V18.0963V15.1926L16.2889 14.7778H17.7111L18.0666 15.1926V19.3407L18.7778 21H15.2222Z" stroke="black" stroke-width="0.5" stroke-linecap="round"/>
<path d="M12.1111 11.2222L12.005 11.3283L12.049 11.3722H12.1111V11.2222ZM14.8667 11.2222C14.8667 11.6641 15.2248 12.0222 15.6667 12.0222C16.1085 12.0222 16.4667 11.6641 16.4667 11.2222C16.4667 10.7804 16.1085 10.4222 15.6667 10.4222C15.2248 10.4222 14.8667 10.7804 14.8667 11.2222ZM10.4222 10.3333C10.4222 10.7752 10.7804 11.1333 11.2222 11.1333C11.664 11.1333 12.0222 10.7752 12.0222 10.3333C12.0222 9.89152 11.664 9.53334 11.2222 9.53334C10.7804 9.53334 10.4222 9.89152 10.4222 10.3333ZM10.4222 8.11112C10.4222 8.55295 10.7804 8.91112 11.2222 8.91112C11.664 8.91112 12.0222 8.55295 12.0222 8.11112C12.0222 7.66929 11.664 7.31112 11.2222 7.31112C10.7804 7.31112 10.4222 7.66929 10.4222 8.11112ZM13 9.8889L12.8939 9.99497L12.9379 10.0389H13V9.8889ZM17 9.8889L17.09 9.7689L17.05 9.7389H17V9.8889ZM18.7778 11.2222H18.9278V11.1472L18.8678 11.1022L18.7778 11.2222ZM17.9778 12.5556C17.9778 12.9974 18.3359 13.3556 18.7778 13.3556C19.2196 13.3556 19.5778 12.9974 19.5778 12.5556C19.5778 12.1137 19.2196 11.7556 18.7778 11.7556C18.3359 11.7556 17.9778 12.1137 17.9778 12.5556ZM11.7556 7.22223C11.7556 7.66406 12.1137 8.02223 12.5556 8.02223C12.9974 8.02223 13.3556 7.66406 13.3556 7.22223C13.3556 6.78041 12.9974 6.42223 12.5556 6.42223C12.1137 6.42223 11.7556 6.78041 11.7556 7.22223ZM13.0889 8.55557C13.0889 8.99739 13.4471 9.35557 13.8889 9.35557C14.3307 9.35557 14.6889 8.99739 14.6889 8.55557C14.6889 8.11374 14.3307 7.75557 13.8889 7.75557C13.4471 7.75557 13.0889 8.11374 13.0889 8.55557ZM19.3111 14.3333C19.3111 14.7752 19.6693 15.1333 20.1111 15.1333C20.5529 15.1333 20.9111 14.7752 20.9111 14.3333C20.9111 13.8915 20.5529 13.5333 20.1111 13.5333C19.6693 13.5333 19.3111 13.8915 19.3111 14.3333ZM20.1111 10.3333H20.2611V10.2712L20.2172 10.2273L20.1111 10.3333ZM17.8889 8.11112L17.9949 8.00506L17.951 7.96112H17.8889V8.11112ZM15.2222 8.11112L15.1161 8.21719L15.1601 8.26112H15.2222V8.11112ZM13.0889 6.77779C13.0889 7.21962 13.4471 7.57779 13.8889 7.57779C14.3307 7.57779 14.6889 7.21962 14.6889 6.77779C14.6889 6.33596 14.3307 5.97779 13.8889 5.97779C13.4471 5.97779 13.0889 6.33596 13.0889 6.77779ZM9.97777 12.1111C9.97777 12.5529 10.3359 12.9111 10.7778 12.9111C11.2196 12.9111 11.5778 12.5529 11.5778 12.1111C11.5778 11.6693 11.2196 11.3111 10.7778 11.3111C10.3359 11.3111 9.97777 11.6693 9.97777 12.1111ZM13.0889 14.7778C13.0889 15.2196 13.4471 15.5778 13.8889 15.5778C14.3307 15.5778 14.6889 15.2196 14.6889 14.7778C14.6889 14.336 14.3307 13.9778 13.8889 13.9778C13.4471 13.9778 13.0889 14.336 13.0889 14.7778ZM10.8667 15.2222C10.8667 15.6641 11.2248 16.0222 11.6667 16.0222C12.1085 16.0222 12.4667 15.6641 12.4667 15.2222C12.4667 14.7804 12.1085 14.4222 11.6667 14.4222C11.2248 14.4222 10.8667 14.7804 10.8667 15.2222ZM8.64444 13C8.64444 13.4418 9.00261 13.8 9.44444 13.8C9.88627 13.8 10.2444 13.4418 10.2444 13C10.2444 12.5582 9.88627 12.2 9.44444 12.2C9.00261 12.2 8.64444 12.5582 8.64444 13ZM20.6444 15.2222C20.6444 15.6641 21.0026 16.0222 21.4444 16.0222C21.8863 16.0222 22.2444 15.6641 22.2444 15.2222C22.2444 14.7804 21.8863 14.4222 21.4444 14.4222C21.0026 14.4222 20.6444 14.7804 20.6444 15.2222ZM21.4444 13L21.3384 12.8939L21.2944 12.9379V13H21.4444ZM22.7778 11.6667L22.8838 11.7727L22.9278 11.7288V11.6667H22.7778ZM22.7778 9.00001L22.6717 8.89394L22.6278 8.93788V9.00001H22.7778ZM22.8667 8.11112C22.8667 8.55295 23.2248 8.91112 23.6667 8.91112C24.1085 8.91112 24.4667 8.55295 24.4667 8.11112C24.4667 7.66929 24.1085 7.31112 23.6667 7.31112C23.2248 7.31112 22.8667 7.66929 22.8667 8.11112ZM20.6444 6.77779C20.6444 7.21962 21.0026 7.57779 21.4444 7.57779C21.8863 7.57779 22.2444 7.21962 22.2444 6.77779C22.2444 6.33596 21.8863 5.97779 21.4444 5.97779C21.0026 5.97779 20.6444 6.33596 20.6444 6.77779ZM20.6444 10.7778C20.6444 11.2196 21.0026 11.5778 21.4444 11.5778C21.8863 11.5778 22.2444 11.2196 22.2444 10.7778C22.2444 10.336 21.8863 9.97779 21.4444 9.97779C21.0026 9.97779 20.6444 10.336 20.6444 10.7778ZM19.3111 6.33335C19.3111 6.77517 19.6693 7.13335 20.1111 7.13335C20.5529 7.13335 20.9111 6.77517 20.9111 6.33335C20.9111 5.89152 20.5529 5.53335 20.1111 5.53335C19.6693 5.53335 19.3111 5.89152 19.3111 6.33335ZM19.2222 7.66668L19.0974 7.58347L19.0292 7.68579L19.1161 7.77274L19.2222 7.66668ZM19.3111 8.55557C19.3111 8.99739 19.6693 9.35557 20.1111 9.35557C20.5529 9.35557 20.9111 8.99739 20.9111 8.55557C20.9111 8.11374 20.5529 7.75557 20.1111 7.75557C19.6693 7.75557 19.3111 8.11374 19.3111 8.55557ZM14.8667 7.22223C14.8667 7.66406 15.2248 8.02223 15.6667 8.02223C16.1085 8.02223 16.4667 7.66406 16.4667 7.22223C16.4667 6.78041 16.1085 6.42223 15.6667 6.42223C15.2248 6.42223 14.8667 6.78041 14.8667 7.22223ZM17.8889 7.22223V7.37223H18.0389V7.22223H17.8889ZM17.8889 5.8889H18.0389V5.77179L17.9253 5.74338L17.8889 5.8889ZM15.3111 5.44446C15.3111 5.88629 15.6693 6.24446 16.1111 6.24446C16.5529 6.24446 16.9111 5.88629 16.9111 5.44446C16.9111 5.00263 16.5529 4.64446 16.1111 4.64446C15.6693 4.64446 15.3111 5.00263 15.3111 5.44446ZM23.7555 12.5556C23.7555 12.9974 24.1137 13.3556 24.5555 13.3556C24.9974 13.3556 25.3555 12.9974 25.3555 12.5556C25.3555 12.1137 24.9974 11.7556 24.5555 11.7556C24.1137 11.7556 23.7555 12.1137 23.7555 12.5556ZM23.2222 12.5556V12.4056H23.1141L23.0799 12.5081L23.2222 12.5556ZM22.7778 13.8889L22.6355 13.8415L22.6278 13.8646V13.8889H22.7778ZM21.9778 15.2222C21.9778 15.6641 22.3359 16.0222 22.7778 16.0222C23.2196 16.0222 23.5778 15.6641 23.5778 15.2222C23.5778 14.7804 23.2196 14.4222 22.7778 14.4222C22.3359 14.4222 21.9778 14.7804 21.9778 15.2222ZM12.1111 11.3722H15.6667V11.0722H12.1111V11.3722ZM12.2172 11.1162L11.3283 10.2273L11.1162 10.4394L12.005 11.3283L12.2172 11.1162ZM11.1162 8.21719L12.8939 9.99497L13.1061 9.78283L11.3283 8.00506L11.1162 8.21719ZM13 10.0389H17V9.7389H13V10.0389ZM16.91 10.0089L18.6878 11.3422L18.8678 11.1022L17.09 9.7689L16.91 10.0089ZM18.6278 11.2222V12.5556H18.9278V11.2222H18.6278ZM12.4495 7.3283L13.7828 8.66163L13.9949 8.4495L12.6616 7.11617L12.4495 7.3283ZM20.2611 14.3333V10.3333H19.9611V14.3333H20.2611ZM20.2172 10.2273L17.9949 8.00506L17.7828 8.21719L20.005 10.4394L20.2172 10.2273ZM17.8889 7.96112H15.2222V8.26112H17.8889V7.96112ZM15.3283 8.00506L13.9949 6.67172L13.7828 6.88386L15.1161 8.21719L15.3283 8.00506ZM10.6802 12.225L13.7913 14.8917L13.9865 14.6639L10.8754 11.9972L10.6802 12.225ZM11.7727 15.1162L9.55051 12.8939L9.33838 13.1061L11.5606 15.3283L11.7727 15.1162ZM21.5944 15.2222V13H21.2944V15.2222H21.5944ZM21.5505 13.1061L22.8838 11.7727L22.6717 11.5606L21.3384 12.8939L21.5505 13.1061ZM22.9278 11.6667V9.00001H22.6278V11.6667H22.9278ZM22.8838 9.10608L23.7727 8.21719L23.5606 8.00506L22.6717 8.89394L22.8838 9.10608ZM21.2944 6.77779V10.7778H21.5944V6.77779H21.2944ZM19.9863 6.25014L19.0974 7.58347L19.347 7.74988L20.2359 6.41655L19.9863 6.25014ZM19.1161 7.77274L20.005 8.66163L20.2172 8.4495L19.3283 7.56061L19.1161 7.77274ZM15.6667 7.37223H17.8889V7.07223H15.6667V7.37223ZM18.0389 7.22223V5.8889H17.7389V7.22223H18.0389ZM17.9253 5.74338L16.1475 5.29894L16.0747 5.58998L17.8525 6.03442L17.9253 5.74338ZM24.5555 12.4056H23.2222V12.7056H24.5555V12.4056ZM23.0799 12.5081L22.6355 13.8415L22.9201 13.9363L23.3645 12.603L23.0799 12.5081ZM22.6278 13.8889V15.2222H22.9278V13.8889H22.6278Z" fill="black"/>
<circle cx="0.444444" cy="0.444444" r="0.444444" transform="matrix(1 0 0 -1 10.7778 8.55554)" fill="#D9D9D9"/>
<circle cx="0.444444" cy="0.444444" r="0.444444" transform="matrix(1 0 0 -1 15.2222 11.6667)" fill="#D9D9D9"/>
<circle cx="0.444444" cy="0.444444" r="0.444444" transform="matrix(1 0 0 -1 13.4444 9)" fill="#D9D9D9"/>
<circle cx="0.444444" cy="0.444444" r="0.444444" transform="matrix(1 0 0 -1 10.7778 10.7778)" fill="#D9D9D9"/>
<circle cx="0.444444" cy="0.444444" r="0.444444" transform="matrix(1 0 0 -1 13.4444 15.2222)" fill="#D9D9D9"/>
<circle cx="0.444444" cy="0.444444" r="0.444444" transform="matrix(1 0 0 -1 8.99998 13.4445)" fill="#D9D9D9"/>
<circle cx="0.444444" cy="0.444444" r="0.444444" transform="matrix(1 0 0 -1 19.6666 9)" fill="#D9D9D9"/>
<circle cx="0.444444" cy="0.444444" r="0.444444" transform="matrix(1 0 0 -1 13.4444 7.22224)" fill="#D9D9D9"/>
<circle cx="0.444444" cy="0.444444" r="0.444444" transform="matrix(1 0 0 -1 15.2222 7.66669)" fill="#D9D9D9"/>
<circle cx="0.444444" cy="0.444444" r="0.444444" transform="matrix(1 0 0 -1 12.1111 7.66669)" fill="#D9D9D9"/>
<circle cx="0.444444" cy="0.444444" r="0.444444" transform="matrix(1 0 0 -1 10.3333 12.5556)" fill="#D9D9D9"/>
<circle cx="0.444444" cy="0.444444" r="0.444444" transform="matrix(1 0 0 -1 11.2222 15.6667)" fill="#D9D9D9"/>
<circle cx="0.444444" cy="0.444444" r="0.444444" transform="matrix(1 0 0 -1 19.6666 6.77779)" fill="#D9D9D9"/>
<circle cx="0.444444" cy="0.444444" r="0.444444" transform="matrix(1 0 0 -1 21 7.22224)" fill="#D9D9D9"/>
<circle cx="0.444444" cy="0.444444" r="0.444444" transform="matrix(1 0 0 -1 21 11.2222)" fill="#D9D9D9"/>
<circle cx="0.444444" cy="0.444444" r="0.444444" transform="matrix(1 0 0 -1 23.2222 8.55554)" fill="#D9D9D9"/>
<circle cx="0.444444" cy="0.444444" r="0.444444" transform="matrix(1 0 0 -1 24.1111 13)" fill="#D9D9D9"/>
<circle cx="0.444444" cy="0.444444" r="0.444444" transform="matrix(1 0 0 -1 22.3333 15.6667)" fill="#D9D9D9"/>
<circle cx="0.444444" cy="0.444444" r="0.444444" transform="matrix(1 0 0 -1 21 15.6667)" fill="#D9D9D9"/>
<circle cx="0.444444" cy="0.444444" r="0.444444" transform="matrix(1 0 0 -1 19.6666 14.7778)" fill="#D9D9D9"/>
<circle cx="0.444444" cy="0.444444" r="0.444444" transform="matrix(1 0 0 -1 18.3333 13)" fill="#D9D9D9"/>
<circle cx="0.444444" cy="0.444444" r="0.444444" transform="matrix(1 0 0 -1 15.6667 5.8889)" fill="#D9D9D9"/>
<path d="M16.5555 20.5555V21.4372C16.5555 21.7264 16.6704 22.0037 16.8749 22.2082V22.2082C16.9577 22.2911 17.0534 22.36 17.1582 22.4124L17.5219 22.5942C17.7468 22.7067 17.8889 22.9366 17.8889 23.1881V23.1881C17.8889 23.4739 17.706 23.7276 17.4349 23.818L16.9772 23.9705C16.7254 24.0545 16.5555 24.2901 16.5555 24.5555V24.5555" stroke="black" stroke-width="0.3"/>
<path d="M16.1111 24.5555H16.5555H17V25.4444H21V30.3333H11.6666V25.4444H16.1111V24.5555Z" fill="#D9D9D9"/>
<path d="M16.1111 24.5555H16.5555H17V25.4444H21V30.3333H11.6666V25.4444H16.1111V24.5555Z" fill="black" fill-opacity="0.2"/>
<path d="M16.1111 25.4444V24.5555H16.5555H17V25.4444M16.1111 25.4444H17M16.1111 25.4444H11.6666V30.3333H21V25.4444H17M13.8888 29H19.2222V29.8888H13.8888V29ZM19.6666 29.8888H20.5555V29H19.6666V29.8888ZM13 29.8888H12.1111V29H13V29.8888ZM12.1111 28.5555H13.4444V27.6666H12.1111V28.5555ZM12.1111 27.2222H13.4444V26.3333H12.1111V27.2222ZM13.8888 27.6666V28.5555H14.7777V27.6666H13.8888ZM15.2222 28.5555H16.1111V27.6666H15.2222V28.5555ZM16.5555 28.5555H17.4444V27.6666H16.5555V28.5555ZM17.8888 28.5555H18.7777V27.6666H17.8888V28.5555ZM19.2222 28.5555H20.5555V27.6666H19.2222V28.5555ZM13.8888 27.2222H14.7777V26.3333H13.8888V27.2222ZM15.2222 27.2222H16.1111V26.3333H15.2222V27.2222ZM16.5555 27.2222H17.4444V26.3333H16.5555V27.2222ZM17.8888 27.2222H18.7777V26.3333H17.8888V27.2222ZM19.2222 27.2222H20.5555V26.3333H19.2222V27.2222Z" stroke="black" stroke-width="0.3"/>
</svg>
