<svg width="18" height="15" viewBox="0 0 18 15" fill="none" xmlns="http://www.w3.org/2000/svg">
<path d="M7.10977 8.5625L7.74356 6.76562L6.07107 5.60938H8.11327L8.78226 3.75L9.43365 5.60938H11.4935L9.82096 6.76562L10.4371 8.5625L8.78226 7.45312L7.10977 8.5625ZM4.62745 14.375V9.625C4.0993 9.13542 3.72079 8.59896 3.49192 8.01562C3.26305 7.43229 3.14862 6.84375 3.14862 6.25C3.14862 4.83333 3.68851 3.64583 4.76829 2.6875C5.84807 1.72917 7.18606 1.25 8.78226 1.25C10.3785 1.25 11.7164 1.72917 12.7962 2.6875C13.876 3.64583 14.4159 4.83333 14.4159 6.25C14.4159 6.84375 14.3015 7.43229 14.0726 8.01562C13.8437 8.59896 13.4652 9.13542 12.9371 9.625V14.375L8.78226 13.1406L4.62745 14.375ZM8.78226 10.3125C10.0616 10.3125 11.1443 9.91927 12.0304 9.13281C12.9165 8.34635 13.3596 7.38542 13.3596 6.25C13.3596 5.11458 12.9165 4.15365 12.0304 3.36719C11.1443 2.58073 10.0616 2.1875 8.78226 2.1875C7.50295 2.1875 6.42024 2.58073 5.53412 3.36719C4.64799 4.15365 4.20493 5.11458 4.20493 6.25C4.20493 7.38542 4.64799 8.34635 5.53412 9.13281C6.42024 9.91927 7.50295 10.3125 8.78226 10.3125ZM5.68376 13.0625L8.78226 12.2031L11.8808 13.0625V10.3906C11.4113 10.6927 10.9066 10.9115 10.3667 11.0469C9.82683 11.1823 9.29868 11.25 8.78226 11.25C8.26584 11.25 7.73769 11.1823 7.1978 11.0469C6.65791 10.9115 6.15323 10.6927 5.68376 10.3906V13.0625Z" fill="black"/>
</svg>
