<svg width="370" height="32" viewBox="0 0 370 32" fill="none" xmlns="http://www.w3.org/2000/svg">
<rect y="14" width="370" height="2" fill="#D9D9D9"/>
<path d="M176.223 2.77106L174.496 3.74228L176.683 7.48435L173.374 13.3403H169V15.3398H179.446L181.518 11.6549L176.223 2.77106Z" fill="#0C2B9C"/>
<path d="M179.446 1L177.748 1.97122L182.986 10.7979H187.101L192.223 1.97122L190.496 1L188.309 4.65637H181.518L179.446 1Z" fill="#0C2B9C"/>
<path d="M195.36 3.74228L193.662 2.77106L188.511 11.6549L190.698 15.3398H201V13.3403H196.77L193.23 7.48435L194.295 5.61331L195.36 3.74228Z" fill="#0C2B9C"/>
<path d="M169 18.8819V16.9966H179.446L181.518 20.5102L176.223 29.6797L174.496 28.7084L176.683 24.6807L173.374 18.8819H169Z" fill="#0C2B9C"/>
<path d="M182.986 21.2814L177.748 30.2795L179.446 31.2222L181.748 27.423H188.511L190.698 31.2222L192.424 30.2795L187.101 21.2814H182.986Z" fill="#0C2B9C"/>
<path d="M195.36 28.3657L193.662 29.3654L188.511 20.5102L190.698 16.9966H196.77H201V18.8819H196.77L193.23 24.6807L195.36 28.3657Z" fill="#0C2B9C"/>
<path d="M176.223 2.77106L174.496 3.74228L176.683 7.48435L173.374 13.3403H169V15.3398H179.446L181.518 11.6549L176.223 2.77106Z" stroke="black" stroke-linecap="round"/>
<path d="M179.446 1L177.748 1.97122L182.986 10.7979H187.101L192.223 1.97122L190.496 1L188.309 4.65637H181.518L179.446 1Z" stroke="black" stroke-linecap="round"/>
<path d="M195.36 3.74228L193.662 2.77106L188.511 11.6549L190.698 15.3398H201V13.3403H196.77L193.23 7.48435L194.295 5.61331L195.36 3.74228Z" stroke="black" stroke-linecap="round"/>
<path d="M169 18.8819V16.9966H179.446L181.518 20.5102L176.223 29.6797L174.496 28.7084L176.683 24.6807L173.374 18.8819H169Z" stroke="black" stroke-linecap="round"/>
<path d="M182.986 21.2814L177.748 30.2795L179.446 31.2222L181.748 27.423H188.511L190.698 31.2222L192.424 30.2795L187.101 21.2814H182.986Z" stroke="black" stroke-linecap="round"/>
<path d="M195.36 28.3657L193.662 29.3654L188.511 20.5102L190.698 16.9966H196.77H201V18.8819H196.77L193.23 24.6807L195.36 28.3657Z" stroke="black" stroke-linecap="round"/>
<path d="M183.667 17.4445L182.778 16.5556H180.111L179.222 16.1111L177.444 15.6667L176.556 14.3333L176.111 13L177.444 12.1111L176.556 10.7778L177.889 9.44446V7.66668L179.667 6.33335L181 6.77779L181.444 5.72743L182.778 5.44446L183.667 4.55557H185.889L187.424 5.72743L188.556 5.44446L189 6.33335L190.778 6.77779L192.111 7.66668V9.44446L193.444 10.3333V11.6667V13.8889L192.111 15.6667L189.889 16.1111L189.444 16.5556H187.222L186.333 17.4445H183.667Z" fill="#3FCA0E"/>
<path d="M189.889 16.1111L189.444 16.5556H187.222L186.333 17.4445H183.667L182.778 16.5556H180.111L179.222 16.1111M189.889 16.1111L189.444 15.6667L187.222 15.2222L185.889 14.7778M189.889 16.1111L192.111 15.6667L193.444 13.8889V11.6667M179.222 16.1111L181 15.2222M179.222 16.1111L177.444 15.6667L176.556 14.3333L176.111 13L177.444 12.1111L176.556 10.7778L177.889 9.44446V7.66668L179.667 6.33335L181 6.77779L181.444 5.72743L182.778 5.44446M181 15.2222V13.8889M181 15.2222L182.778 15.6667L184.111 14.7778M184.111 14.7778L182.778 13.4445M184.111 14.7778H185.889M185.889 14.7778L187.222 13.4445M193.444 11.6667L191.667 12.1111M193.444 11.6667V10.3333L192.111 9.44446V7.66668L190.778 6.77779L189 6.33335L188.556 5.44446L187.424 5.72743M186.778 5.8889L187.424 5.72743M187.424 5.72743L185.889 4.55557H183.667L182.778 5.44446M182.778 5.44446L183.667 6.33335" stroke="black" stroke-linecap="round"/>
<path d="M183.933 19.3408L183.222 21H186.778L186.067 19.3408V15.1926L185.711 14.7778H185H184.289L183.933 15.1926V18.0963V19.3408Z" fill="#B39287"/>
<path d="M185 16.4371V14.7778M185 17.6815V18.5111M183.222 21L183.933 19.3408V18.0963V15.1926L184.289 14.7778H185.711L186.067 15.1926V19.3408L186.778 21H183.222Z" stroke="black" stroke-width="0.5" stroke-linecap="round"/>
<path d="M180.111 11.2222L180.005 11.3283L180.049 11.3722H180.111V11.2222ZM182.867 11.2222C182.867 11.6641 183.225 12.0222 183.667 12.0222C184.108 12.0222 184.467 11.6641 184.467 11.2222C184.467 10.7804 184.108 10.4222 183.667 10.4222C183.225 10.4222 182.867 10.7804 182.867 11.2222ZM178.422 10.3333C178.422 10.7752 178.78 11.1333 179.222 11.1333C179.664 11.1333 180.022 10.7752 180.022 10.3333C180.022 9.89152 179.664 9.53334 179.222 9.53334C178.78 9.53334 178.422 9.89152 178.422 10.3333ZM178.422 8.11112C178.422 8.55295 178.78 8.91112 179.222 8.91112C179.664 8.91112 180.022 8.55295 180.022 8.11112C180.022 7.66929 179.664 7.31112 179.222 7.31112C178.78 7.31112 178.422 7.66929 178.422 8.11112ZM181 9.8889L180.894 9.99497L180.938 10.0389H181V9.8889ZM185 9.8889L185.09 9.7689L185.05 9.7389H185V9.8889ZM186.778 11.2222H186.928V11.1472L186.868 11.1022L186.778 11.2222ZM185.978 12.5556C185.978 12.9974 186.336 13.3556 186.778 13.3556C187.22 13.3556 187.578 12.9974 187.578 12.5556C187.578 12.1137 187.22 11.7556 186.778 11.7556C186.336 11.7556 185.978 12.1137 185.978 12.5556ZM179.756 7.22223C179.756 7.66406 180.114 8.02223 180.556 8.02223C180.997 8.02223 181.356 7.66406 181.356 7.22223C181.356 6.78041 180.997 6.42223 180.556 6.42223C180.114 6.42223 179.756 6.78041 179.756 7.22223ZM181.089 8.55557C181.089 8.99739 181.447 9.35557 181.889 9.35557C182.331 9.35557 182.689 8.99739 182.689 8.55557C182.689 8.11374 182.331 7.75557 181.889 7.75557C181.447 7.75557 181.089 8.11374 181.089 8.55557ZM187.311 14.3333C187.311 14.7752 187.669 15.1333 188.111 15.1333C188.553 15.1333 188.911 14.7752 188.911 14.3333C188.911 13.8915 188.553 13.5333 188.111 13.5333C187.669 13.5333 187.311 13.8915 187.311 14.3333ZM188.111 10.3333H188.261V10.2712L188.217 10.2273L188.111 10.3333ZM185.889 8.11112L185.995 8.00506L185.951 7.96112H185.889V8.11112ZM183.222 8.11112L183.116 8.21719L183.16 8.26112H183.222V8.11112ZM181.089 6.77779C181.089 7.21962 181.447 7.57779 181.889 7.57779C182.331 7.57779 182.689 7.21962 182.689 6.77779C182.689 6.33596 182.331 5.97779 181.889 5.97779C181.447 5.97779 181.089 6.33596 181.089 6.77779ZM177.978 12.1111C177.978 12.5529 178.336 12.9111 178.778 12.9111C179.22 12.9111 179.578 12.5529 179.578 12.1111C179.578 11.6693 179.22 11.3111 178.778 11.3111C178.336 11.3111 177.978 11.6693 177.978 12.1111ZM181.089 14.7778C181.089 15.2196 181.447 15.5778 181.889 15.5778C182.331 15.5778 182.689 15.2196 182.689 14.7778C182.689 14.336 182.331 13.9778 181.889 13.9778C181.447 13.9778 181.089 14.336 181.089 14.7778ZM178.867 15.2222C178.867 15.6641 179.225 16.0222 179.667 16.0222C180.108 16.0222 180.467 15.6641 180.467 15.2222C180.467 14.7804 180.108 14.4222 179.667 14.4222C179.225 14.4222 178.867 14.7804 178.867 15.2222ZM176.644 13C176.644 13.4418 177.003 13.8 177.444 13.8C177.886 13.8 178.244 13.4418 178.244 13C178.244 12.5582 177.886 12.2 177.444 12.2C177.003 12.2 176.644 12.5582 176.644 13ZM188.644 15.2222C188.644 15.6641 189.003 16.0222 189.444 16.0222C189.886 16.0222 190.244 15.6641 190.244 15.2222C190.244 14.7804 189.886 14.4222 189.444 14.4222C189.003 14.4222 188.644 14.7804 188.644 15.2222ZM189.444 13L189.338 12.8939L189.294 12.9379V13H189.444ZM190.778 11.6667L190.884 11.7727L190.928 11.7288V11.6667H190.778ZM190.778 9.00001L190.672 8.89394L190.628 8.93788V9.00001H190.778ZM190.867 8.11112C190.867 8.55295 191.225 8.91112 191.667 8.91112C192.108 8.91112 192.467 8.55295 192.467 8.11112C192.467 7.66929 192.108 7.31112 191.667 7.31112C191.225 7.31112 190.867 7.66929 190.867 8.11112ZM188.644 6.77779C188.644 7.21962 189.003 7.57779 189.444 7.57779C189.886 7.57779 190.244 7.21962 190.244 6.77779C190.244 6.33596 189.886 5.97779 189.444 5.97779C189.003 5.97779 188.644 6.33596 188.644 6.77779ZM188.644 10.7778C188.644 11.2196 189.003 11.5778 189.444 11.5778C189.886 11.5778 190.244 11.2196 190.244 10.7778C190.244 10.336 189.886 9.97779 189.444 9.97779C189.003 9.97779 188.644 10.336 188.644 10.7778ZM187.311 6.33335C187.311 6.77517 187.669 7.13335 188.111 7.13335C188.553 7.13335 188.911 6.77517 188.911 6.33335C188.911 5.89152 188.553 5.53335 188.111 5.53335C187.669 5.53335 187.311 5.89152 187.311 6.33335ZM187.222 7.66668L187.097 7.58347L187.029 7.68579L187.116 7.77274L187.222 7.66668ZM187.311 8.55557C187.311 8.99739 187.669 9.35557 188.111 9.35557C188.553 9.35557 188.911 8.99739 188.911 8.55557C188.911 8.11374 188.553 7.75557 188.111 7.75557C187.669 7.75557 187.311 8.11374 187.311 8.55557ZM182.867 7.22223C182.867 7.66406 183.225 8.02223 183.667 8.02223C184.108 8.02223 184.467 7.66406 184.467 7.22223C184.467 6.78041 184.108 6.42223 183.667 6.42223C183.225 6.42223 182.867 6.78041 182.867 7.22223ZM185.889 7.22223V7.37223H186.039V7.22223H185.889ZM185.889 5.8889H186.039V5.77179L185.925 5.74338L185.889 5.8889ZM183.311 5.44446C183.311 5.88629 183.669 6.24446 184.111 6.24446C184.553 6.24446 184.911 5.88629 184.911 5.44446C184.911 5.00263 184.553 4.64446 184.111 4.64446C183.669 4.64446 183.311 5.00263 183.311 5.44446ZM191.756 12.5556C191.756 12.9974 192.114 13.3556 192.556 13.3556C192.997 13.3556 193.356 12.9974 193.356 12.5556C193.356 12.1137 192.997 11.7556 192.556 11.7556C192.114 11.7556 191.756 12.1137 191.756 12.5556ZM191.222 12.5556V12.4056H191.114L191.08 12.5081L191.222 12.5556ZM190.778 13.8889L190.635 13.8415L190.628 13.8646V13.8889H190.778ZM189.978 15.2222C189.978 15.6641 190.336 16.0222 190.778 16.0222C191.22 16.0222 191.578 15.6641 191.578 15.2222C191.578 14.7804 191.22 14.4222 190.778 14.4222C190.336 14.4222 189.978 14.7804 189.978 15.2222ZM180.111 11.3722H183.667V11.0722H180.111V11.3722ZM180.217 11.1162L179.328 10.2273L179.116 10.4394L180.005 11.3283L180.217 11.1162ZM179.116 8.21719L180.894 9.99497L181.106 9.78283L179.328 8.00506L179.116 8.21719ZM181 10.0389H185V9.7389H181V10.0389ZM184.91 10.0089L186.688 11.3422L186.868 11.1022L185.09 9.7689L184.91 10.0089ZM186.628 11.2222V12.5556H186.928V11.2222H186.628ZM180.449 7.3283L181.783 8.66163L181.995 8.4495L180.662 7.11617L180.449 7.3283ZM188.261 14.3333V10.3333H187.961V14.3333H188.261ZM188.217 10.2273L185.995 8.00506L185.783 8.21719L188.005 10.4394L188.217 10.2273ZM185.889 7.96112H183.222V8.26112H185.889V7.96112ZM183.328 8.00506L181.995 6.67172L181.783 6.88386L183.116 8.21719L183.328 8.00506ZM178.68 12.225L181.791 14.8917L181.987 14.6639L178.875 11.9972L178.68 12.225ZM179.773 15.1162L177.551 12.8939L177.338 13.1061L179.561 15.3283L179.773 15.1162ZM189.594 15.2222V13H189.294V15.2222H189.594ZM189.551 13.1061L190.884 11.7727L190.672 11.5606L189.338 12.8939L189.551 13.1061ZM190.928 11.6667V9.00001H190.628V11.6667H190.928ZM190.884 9.10608L191.773 8.21719L191.561 8.00506L190.672 8.89394L190.884 9.10608ZM189.294 6.77779V10.7778H189.594V6.77779H189.294ZM187.986 6.25014L187.097 7.58347L187.347 7.74988L188.236 6.41655L187.986 6.25014ZM187.116 7.77274L188.005 8.66163L188.217 8.4495L187.328 7.56061L187.116 7.77274ZM183.667 7.37223H185.889V7.07223H183.667V7.37223ZM186.039 7.22223V5.8889H185.739V7.22223H186.039ZM185.925 5.74338L184.147 5.29894L184.075 5.58998L185.853 6.03442L185.925 5.74338ZM192.556 12.4056H191.222V12.7056H192.556V12.4056ZM191.08 12.5081L190.635 13.8415L190.92 13.9363L191.365 12.603L191.08 12.5081ZM190.628 13.8889V15.2222H190.928V13.8889H190.628Z" fill="black"/>
<circle cx="0.444444" cy="0.444444" r="0.444444" transform="matrix(1 0 0 -1 178.778 8.55554)" fill="#D9D9D9"/>
<circle cx="0.444444" cy="0.444444" r="0.444444" transform="matrix(1 0 0 -1 183.222 11.6667)" fill="#D9D9D9"/>
<circle cx="0.444444" cy="0.444444" r="0.444444" transform="matrix(1 0 0 -1 181.444 9)" fill="#D9D9D9"/>
<circle cx="0.444444" cy="0.444444" r="0.444444" transform="matrix(1 0 0 -1 178.778 10.7778)" fill="#D9D9D9"/>
<circle cx="0.444444" cy="0.444444" r="0.444444" transform="matrix(1 0 0 -1 181.444 15.2222)" fill="#D9D9D9"/>
<circle cx="0.444444" cy="0.444444" r="0.444444" transform="matrix(1 0 0 -1 177 13.4445)" fill="#D9D9D9"/>
<circle cx="0.444444" cy="0.444444" r="0.444444" transform="matrix(1 0 0 -1 187.667 9)" fill="#D9D9D9"/>
<circle cx="0.444444" cy="0.444444" r="0.444444" transform="matrix(1 0 0 -1 181.444 7.22223)" fill="#D9D9D9"/>
<circle cx="0.444444" cy="0.444444" r="0.444444" transform="matrix(1 0 0 -1 183.222 7.66669)" fill="#D9D9D9"/>
<circle cx="0.444444" cy="0.444444" r="0.444444" transform="matrix(1 0 0 -1 180.111 7.66669)" fill="#D9D9D9"/>
<circle cx="0.444444" cy="0.444444" r="0.444444" transform="matrix(1 0 0 -1 178.333 12.5555)" fill="#D9D9D9"/>
<circle cx="0.444444" cy="0.444444" r="0.444444" transform="matrix(1 0 0 -1 179.222 15.6667)" fill="#D9D9D9"/>
<circle cx="0.444444" cy="0.444444" r="0.444444" transform="matrix(1 0 0 -1 187.667 6.7778)" fill="#D9D9D9"/>
<circle cx="0.444444" cy="0.444444" r="0.444444" transform="matrix(1 0 0 -1 189 7.22223)" fill="#D9D9D9"/>
<circle cx="0.444444" cy="0.444444" r="0.444444" transform="matrix(1 0 0 -1 189 11.2222)" fill="#D9D9D9"/>
<circle cx="0.444444" cy="0.444444" r="0.444444" transform="matrix(1 0 0 -1 191.222 8.55554)" fill="#D9D9D9"/>
<circle cx="0.444444" cy="0.444444" r="0.444444" transform="matrix(1 0 0 -1 192.111 13)" fill="#D9D9D9"/>
<circle cx="0.444444" cy="0.444444" r="0.444444" transform="matrix(1 0 0 -1 190.333 15.6667)" fill="#D9D9D9"/>
<circle cx="0.444444" cy="0.444444" r="0.444444" transform="matrix(1 0 0 -1 189 15.6667)" fill="#D9D9D9"/>
<circle cx="0.444444" cy="0.444444" r="0.444444" transform="matrix(1 0 0 -1 187.667 14.7778)" fill="#D9D9D9"/>
<circle cx="0.444444" cy="0.444444" r="0.444444" transform="matrix(1 0 0 -1 186.333 13)" fill="#D9D9D9"/>
<circle cx="0.444444" cy="0.444444" r="0.444444" transform="matrix(1 0 0 -1 183.667 5.88892)" fill="#D9D9D9"/>
<path d="M184.556 20.5555V21.4373C184.556 21.7264 184.67 22.0037 184.875 22.2082V22.2082C184.958 22.2911 185.053 22.36 185.158 22.4124L185.522 22.5943C185.747 22.7067 185.889 22.9366 185.889 23.1881V23.1881C185.889 23.4739 185.706 23.7276 185.435 23.818L184.977 23.9705C184.725 24.0545 184.556 24.2901 184.556 24.5555V24.5555" stroke="black" stroke-width="0.3"/>
<path d="M184.111 24.5555H184.556H185V25.4444H189V30.3333H179.667V25.4444H184.111V24.5555Z" fill="#D9D9D9"/>
<path d="M184.111 24.5555H184.556H185V25.4444H189V30.3333H179.667V25.4444H184.111V24.5555Z" fill="black" fill-opacity="0.2"/>
<path d="M184.111 25.4444V24.5555H184.556H185V25.4444M184.111 25.4444H185M184.111 25.4444H179.667V30.3333H189V25.4444H185M181.889 29H187.222V29.8888H181.889V29ZM187.667 29.8888H188.556V29H187.667V29.8888ZM181 29.8888H180.111V29H181V29.8888ZM180.111 28.5555H181.444V27.6666H180.111V28.5555ZM180.111 27.2222H181.444V26.3333H180.111V27.2222ZM181.889 27.6666V28.5555H182.778V27.6666H181.889ZM183.222 28.5555H184.111V27.6666H183.222V28.5555ZM184.556 28.5555H185.444V27.6666H184.556V28.5555ZM185.889 28.5555H186.778V27.6666H185.889V28.5555ZM187.222 28.5555H188.556V27.6666H187.222V28.5555ZM181.889 27.2222H182.778V26.3333H181.889V27.2222ZM183.222 27.2222H184.111V26.3333H183.222V27.2222ZM184.556 27.2222H185.444V26.3333H184.556V27.2222ZM185.889 27.2222H186.778V26.3333H185.889V27.2222ZM187.222 27.2222H188.556V26.3333H187.222V27.2222Z" stroke="black" stroke-width="0.3"/>
</svg>
